<?xml version="1.0" encoding="UTF-8"?>
<svg width="1200pt" height="1200pt" version="1.1" viewBox="0 0 1200 1200" xmlns="http://www.w3.org/2000/svg">
 <path d="m1040.2 974.86h-880.31c-48.516-0.09375-87.797-39.422-87.844-87.938v-573.84c0.046876-48.516 39.328-87.844 87.844-87.938h880.31c48.516 0.09375 87.797 39.422 87.844 87.938v573.84c-0.046875 48.516-39.328 87.844-87.844 87.938zm-880.31-713.72c-28.641 0.046876-51.844 23.297-51.844 51.938v573.84c0 28.641 23.203 51.891 51.844 51.938h880.31c28.641-0.046875 51.844-23.297 51.844-51.938v-573.84c0-28.641-23.203-51.891-51.844-51.938z"/>
 <path d="m600 675.71c-35.438-0.046875-69.609-13.125-96-36.844l-392.86-352.31c-6.7969-6.75-7.0781-17.625-0.70312-24.703 6.4219-7.125 17.25-8.0156 24.703-2.0625l392.86 352.22c41.016 36.656 102.98 36.656 144 0l392.76-352.22c3.4688-3.4688 8.25-5.3906 13.219-5.25 4.9219 0.14063 9.6094 2.2969 12.891 5.9531 3.3281 3.7031 4.9688 8.5781 4.5469 13.5-0.375 4.9219-2.8125 9.4688-6.6562 12.562l-392.76 352.31c-26.391 23.719-60.562 36.797-96 36.844z"/>
 <path d="m128.29 949.55c-4.9219-0.046875-9.5625-2.0156-12.984-5.4844-6.9375-7.0781-6.9375-18.422 0-25.453l350.16-339.98c7.0781-6.9375 18.375-6.9375 25.453 0 3.4219 3.375 5.2969 7.9688 5.2969 12.75s-1.875 9.3281-5.2969 12.703l-350.06 340.31c-3.375 3.2812-7.875 5.1094-12.562 5.1562z"/>
 <path d="m1069.7 949.55c-4.5-0.14062-8.7656-2.0156-12-5.1562l-349.69-339c-3.6094-3.2812-5.7188-7.875-5.8594-12.75s1.6875-9.6094 5.0625-13.078c3.4219-3.5156 8.0625-5.4844 12.938-5.4844 4.875 0.046875 9.5625 2.0156 12.938 5.5312l349.22 339c6.9844 7.0312 6.9844 18.422 0 25.453-3.3281 3.375-7.875 5.3906-12.609 5.4844z"/>
</svg>
